{"title":"IMPACT.WRESTLING.2014.03.27.HDTV.XviD-FICEK9","uid":9903437,"size":782875322,"categoryP":"video","categoryS":"movies","magnet":"?xt=urn:btih:d0caa6dbe13a0ff860cb8f8aadb170742de50222&amp;dn=IMPACT.WRESTLING.2014.03.27.HDTV.XviD-FICEK9&amp;tr=udp%3A%2F%2Ftracker.openbittorrent.com%3A80&amp;tr=udp%3A%2F%2Fopen.demonii.com%3A1337&amp;tr=udp%3A%2F%2Ftracker.coppersurfer.tk%3A6969&amp;tr=udp%3A%2F%2Fexodus.desync.com%3A6969","seeders":1,"leechers":0,"uploader":"FICEK9","files":2,"time":1396808080,"description":"\n      Complete name : IMPACT.WRESTLING.2014.03.27.HDTV.XviD-FICEK9.avi\n      Format : AVI\n      Format/Info : Audio Video Interleave\n      File size : 747 MiB\n      Duration : 1h 25mn\n      Overall bit rate mode : Variable\n      Overall bit rate : 1 221 Kbps\n      Writing application : MEncoder SVN-r33883(20110719-gcc4.5.2)\n      Writing library : MPlayer\n   Video #0\n      ID : 0\n      Format : MPEG-4 Visual\n      Format profile : Advanced Simple@L5\n      Format settings, BVOP : 2\n      Format settings, QPel : No\n      Format settings, GMC : No warppoints\n      Format settings, Matrix : Default (H.263)\n      Codec ID : XVID\n      Codec ID/Hint : XviD\n      Duration : 1h 25mn\n      Bit rate : 1 083 Kbps\n      Width : 624 pixels\n      Height : 352 pixels\n      Display aspect ratio : 16:9\n      Original display aspect ratio : 16:9\n      Frame rate : 29.970 fps\n      Color space : YUV\n      Chroma subsampling : 4:2:0\n      Bit depth : 8 bits\n      Scan type : Progressive\n      Compression mode : Lossy\n      Bits/(Pixel*Frame) : 0.165\n      Stream size : 662 MiB (89%)\n      Writing library : XviD 1.2.1 (UTC 2008-12-04)\n   Audio #1\n      ID : 1\n      Format : MPEG Audio\n      Format version : Version 1\n      Format profile : Layer 3\n      Mode : Joint stereo\n      Codec ID : 55\n      Codec ID/Hint : MP3\n      Duration : 1h 25mn\n      Bit rate mode : Variable\n      Bit rate : 124 Kbps\n      Channel count : 2 channels\n      Sampling rate : 48.0 KHz\n      Compression mode : Lossy\n      Stream size : 75.8 MiB (10%)\n      Alignment : Aligned on interleaves\n      Interleave, duration : 24 ms (0.72 video frame)\n      Interleave, preload duration : 525 ms\n","torrent":{"xt":"urn:btih:d0caa6dbe13a0ff860cb8f8aadb170742de50222","amp;dn":"IMPACT.WRESTLING.2014.03.27.HDTV.XviD-FICEK9","amp;tr":["udp%3A%2F%2Ftracker.openbittorrent.com%3A80","udp%3A%2F%2Fopen.demonii.com%3A1337","udp%3A%2F%2Ftracker.coppersurfer.tk%3A6969","udp%3A%2F%2Fexodus.desync.com%3A6969"],"infoHash":"d0caa6dbe13a0ff860cb8f8aadb170742de50222","infoHashBuffer":{"type":"Buffer","data":[208,202,166,219,225,58,15,248,96,203,143,138,173,177,112,116,45,229,2,34]},"announce":[],"urlList":[]}}